<?xml version="1.0" encoding="UTF-8"?>
<!-- Generator: Adobe Illustrator 19.2.1, SVG Export Plug-In . SVG Version: 6.00 Build 0)  -->
<svg version="1.1" xmlns="http://www.w3.org/2000/svg" xmlns:xlink="http://www.w3.org/1999/xlink" x="0px" y="0px" viewBox="58 20 604 115" style="enable-background:new 58 20 604 115;" xml:space="preserve">
<style type="text/css">
	.Arched_x0020_Green{fill:url(#SVGID_1_);stroke:#FFFFFF;stroke-width:0.25;stroke-miterlimit:1;}
	.st0{fill-rule:evenodd;clip-rule:evenodd;fill:#FFFFFF;}
	.st1{clip-path:url(#SVGID_3_);}
	.st2{fill:#ED1C24;}
	.st3{fill:#FFFFFF;}
</style>
<linearGradient id="SVGID_1_" gradientUnits="userSpaceOnUse" x1="103" y1="473" x2="103.7071" y2="472.2929">
	<stop offset="0" style="stop-color:#20AC4B"/>
	<stop offset="0.9831" style="stop-color:#19361A"/>
</linearGradient>
<g id="Layer_1">
	<g>
		<path class="st0" d="M274.6,41.4c0,5.2,0,10.4,0,15.6c-6.6,0-13.1,0-19.7,0c0.2-5.1-0.3-10.9,0.2-15.6    C261.7,41.4,268.2,41.4,274.6,41.4z"/>
		<path class="st0" d="M255.2,60.1c6.6,0,13.1,0,19.7,0c0,14.9,0,29.8,0,44.6c-6.7,0-13.4,0-20.2,0c0.3-14.4,0.3-29.2,0.2-43.9    C254.9,60.5,254.9,60.2,255.2,60.1z"/>
		<g>
			<g>
				<g>
					<path class="st0" d="M251.3,21.2c0,2.1,0,23.9,0,30.5c-18.5,0-49.9,0.1-54.5,0.1c0,6.2,0,11.9,0,17.4c21.5,0,29.7,0.1,44.4,0.1       c-5.4,9-10.6,18.2-16.6,26.6c-9.4,0-18.4,0-27.8,0c-0.2,12.2,0.3,25.1-0.2,37c-12.6-0.2-25.8,0.3-37.9-0.2       c0-37.2,0-74.2,0-111.4H251.3z"/>
					<g>
						<path class="st0" d="M631.5,27.2c-0.5,12.9,0.1,27.1-0.5,40.6c4.5-4,7.3-11.7,8.4-19.9c6.2-0.5,13.4,0,19.7-0.5        c-0.3,4,0.4,7.8-0.2,11.3c-0.5,2.5-3.2,6.5-4.6,9.1c-1.6,3.1-3.3,5.9-4.8,8.6c4.9,7.2,8.1,16.2,9.6,26.9        c-7.3,0.9-15.2,0.3-22.3,0.2c0.2-7-3.4-10.2-4.8-15.6c-0.6,4.7-0.1,10.5-0.2,15.6c-8,0-16,0-24,0c0.2-25.4-0.3-51.4,0.2-76.3        C615.8,27.2,623.7,27.2,631.5,27.2z"/>
					</g>
					<g>
						<path class="st0" d="M337.5,28.4c6.7,0,13.4,0,20.2,0c0,7.1,0,14.2,0,21.4C363,51,368.2,49,373,50c3.2,0.7,7.4,5.9,9.4,8.6        c7.3,10.4,8.5,28.3,7.2,45.8c-7,0-14.1,0-21.1,0c-0.7-7.6,1-16,0-23c-0.3-2.4-1.9-5-3.1-7c-1.3-2-2.8-4.8-5.5-4.6        c-1.1,9.2-0.2,25.6-0.5,35c-7.5,0-13.8-0.4-22.1-0.5c0-25.1,0-50.2,0-75.4C337.3,28.8,337.2,28.5,337.5,28.4z"/>
					</g>
					<g>
						<path class="st0" d="M415,28.7c0,4.8,0,9.6,0,14.4c2.6,0,5.3,0,7.9,0c0.6,6.1,0.1,13.2,0.2,19.7c-2.4,0-4.8,0-7.2,0        c-0.4,5-0.2,10.6-0.2,16.3c0,5.6-1.1,11.9,0,16.6c0.8,3.5,6.3,6.1,7,9.4c-4.1,0-8.1,0-12.2,0c-4,0-8.7,0.8-12,0        c-1.9-0.5-5-4.3-5.3-6.2c-1.5-10.2,1.1-24.9,0-36c-2.4,0-4.8,0-7.2,0c1.3-6.3,2.7-12.7,3.8-19.2c0.3-0.8,1.7-0.5,2.2-1.2        c0.3-4.1,0.2-9.2,0.7-13.7C400.2,28.7,407.6,28.7,415,28.7z"/>
					</g>
					<path class="st0" d="M605.1,49.1c0,6.5,0,13,0,19.4c-6.2,0.9-11.7-1.3-17.3,0c-3.1,0.7-6.8,4.9-8.6,7.2       c-2.2,2.8-4.8,7.5-1.7,11.3c8.4,0.6,18.8,0.1,26.9,0.2c0,5.7,0,11.4,0,17c-7.6,0-14.6,0-21.6,0c-7,0-14.3,0.9-21.4,0       c-6.7-0.9-13.2-6.5-13.4-14.2c-0.3-10.2,6.8-19,12.7-26.2c6.4-7.7,13.2-14,24.7-14.9C591.6,48.6,598,49.4,605.1,49.1z"/>
					<g>
						<g>
							<path class="st0" d="M484.2,87c-0.9-8.6-7-14.9-11.8-21.1c-2.1-2.8-4.6-5.8-7.4-8.9c-2.4-2.6-5.6-6.8-8.9-7.7         c-3.4-1-6.9,0-10.3-1c-0.1-6.6-0.3-12.9-0.2-20.2c-6.9-0.2-13.2,0.2-19.9,0.2c-0.3,25.8,0.8,50.2,0.5,76.1         c13.8-1.1,29.1,1.5,41.3,0c5.2-0.6,11.2-3.9,13.9-7.2C483,95.2,484.6,91.1,484.2,87z M456.8,85.6c-2.6,1-7,0.2-10.3,0.5         c0-6.6,0-13.3,0-19.9C450.4,71,459.2,76.9,456.8,85.6z"/>
						</g>
					</g>
					<g>
						<g>
							<path class="st0" d="M334.9,80.5c0-10.8,0-21.7,0-31.7c-7.9,0.1-17.3-0.3-25.2,0.2c-7.4,0.5-9.4,2.9-13.9,7.9         c-2.6,2.9-4.7,5.7-7.2,8.9c-5.4,6.8-10.5,12.4-11.8,20.4c-1.8,10.9,8.1,17.5,17.8,18.5c7.1,0.7,13.6-0.7,21.1,0.2         c-0.4,3.5-0.8,9.4-4.1,10.3c-2.1,0.6-5.9-0.8-7.9-1.7c-2.5-1-4.7-2.2-7-2.9c-5-1.5-10.9-2.9-16.3-3.4         c-14-1.2-25.9,0.9-38.9,0c-5.3,5.4-10.7,12.3-15.6,18c-0.5,0.6-2,1.4-1.4,2.4c13.5-0.4,27.5-0.5,41.3-0.5         c11.1,0,20.3,1.2,28.6,3.1c2.8,0.7,5.8,1.9,8.4,2.2c18.3,2.1,31.4-5.8,32.4-20.6C335.8,102.5,334.9,91.5,334.9,80.5z          M314.2,86c-3.2-0.1-7,0.3-9.8-0.2c-2.5-3.6,0.2-7.7,2.2-10.6c2.3-3.4,5.3-6.1,7.4-8.9C314.6,72.4,314.1,79.6,314.2,86z"/>
						</g>
					</g>
					<g>
						<g>
							<path class="st0" d="M527.8,49.1c-2.8,0.1-7.6-0.4-10.6,0.2c-3.1,0.7-7.7,5.2-9.8,7.2c-8.2,7.8-17.7,19.9-20.4,30.7         c-2.8,11.3,3.9,16.4,13.7,17c13.7,0.9,29.4-0.7,45.1,0c0-18.4,0-36.8,0-55.2C539.4,49.3,533.5,48.8,527.8,49.1z M526.4,86         c-3.1-0.1-6.8,0.3-9.6-0.2c-4.7-6,6.5-15.7,9.4-19.4C526.7,72.4,526.2,79.6,526.4,86z"/>
						</g>
					</g>
				</g>
			</g>
		</g>
	</g>
	<g>
		<path class="st0" d="M495.5,117.7c-0.2-0.2-0.5-0.4-0.8-0.5c-0.3-0.1-0.6-0.2-0.9-0.2c-0.3,0-0.6,0.1-0.9,0.2    c-0.3,0.1-0.5,0.3-0.7,0.5c-0.2,0.2-0.4,0.5-0.5,0.8c-0.1,0.3-0.2,0.6-0.2,0.9c0,0.3,0.1,0.6,0.2,0.9c0.1,0.3,0.3,0.6,0.5,0.8    c0.2,0.2,0.5,0.4,0.7,0.5c0.3,0.1,0.6,0.2,0.9,0.2c0.3,0,0.6-0.1,0.9-0.2c0.3-0.1,0.5-0.3,0.8-0.5c0.2-0.2,0.4-0.5,0.5-0.8    c0.1-0.3,0.2-0.6,0.2-0.9c0-0.3-0.1-0.6-0.2-0.9C495.9,118.1,495.7,117.9,495.5,117.7z"/>
		<path class="st0" d="M580.1,119.5c-0.1-0.3-0.2-0.6-0.3-0.8c0-0.1-0.1-0.1-0.1-0.1c0,0-0.1,0-0.1,0.1l-0.7,1.6c0,0.1,0,0.1,0,0.2    c0,0.1,0.1,0.1,0.2,0.1h1.2c0.1,0,0.2,0,0.2-0.1c0-0.1,0-0.1,0-0.2C580.3,120.1,580.2,119.8,580.1,119.5z"/>
		<path class="st0" d="M401.9,117.4c-0.1-0.1-0.2-0.2-0.3-0.3c-0.1-0.1-0.3-0.1-0.5-0.1h-1.4c-0.1,0-0.2,0-0.2,0.1    c-0.1,0.1-0.1,0.1-0.1,0.2v1.4c0,0.1,0,0.2,0.1,0.2c0.1,0.1,0.1,0.1,0.2,0.1h1.4c0.1,0,0.2,0,0.3-0.1c0.1,0,0.2-0.1,0.3-0.2    c0.1-0.1,0.2-0.2,0.2-0.3c0.1-0.1,0.1-0.3,0.1-0.4c0-0.1,0-0.2,0-0.3C402,117.6,401.9,117.5,401.9,117.4z"/>
		<path class="st0" d="M456.8,117.7c-0.2-0.2-0.5-0.4-0.8-0.5c-0.3-0.1-0.6-0.2-0.9-0.2c-0.3,0-0.6,0.1-0.9,0.2    c-0.3,0.1-0.5,0.3-0.7,0.5c-0.2,0.2-0.4,0.5-0.5,0.8s-0.2,0.6-0.2,0.9c0,0.3,0.1,0.6,0.2,0.9c0.1,0.3,0.3,0.6,0.5,0.8    c0.2,0.2,0.5,0.4,0.7,0.5c0.3,0.1,0.6,0.2,0.9,0.2c0.3,0,0.6-0.1,0.9-0.2c0.3-0.1,0.5-0.3,0.8-0.5c0.2-0.2,0.4-0.5,0.5-0.8    c0.1-0.3,0.2-0.6,0.2-0.9c0-0.3-0.1-0.6-0.2-0.9S457.1,117.9,456.8,117.7z"/>
		<path class="st0" d="M546.8,117.7c-0.2-0.2-0.5-0.4-0.8-0.5c-0.3-0.1-0.6-0.2-0.9-0.2c-0.3,0-0.6,0.1-0.9,0.2    c-0.3,0.1-0.5,0.3-0.7,0.5c-0.2,0.2-0.4,0.5-0.5,0.8c-0.1,0.3-0.2,0.6-0.2,0.9c0,0.3,0.1,0.6,0.2,0.9c0.1,0.3,0.3,0.6,0.5,0.8    c0.2,0.2,0.5,0.4,0.7,0.5c0.3,0.1,0.6,0.2,0.9,0.2c0.3,0,0.6-0.1,0.9-0.2c0.3-0.1,0.5-0.3,0.8-0.5c0.2-0.2,0.4-0.5,0.5-0.8    c0.1-0.3,0.2-0.6,0.2-0.9c0-0.3-0.1-0.6-0.2-0.9C547.2,118.1,547,117.9,546.8,117.7z"/>
		<path class="st0" d="M534.4,118.2h1.2c0.2,0,0.3-0.1,0.4-0.2c0.1-0.1,0.2-0.3,0.2-0.4c0-0.2-0.1-0.3-0.2-0.4    c-0.1-0.1-0.2-0.2-0.4-0.2h-1.2c-0.1,0-0.2,0-0.2,0.1c-0.1,0.1-0.1,0.1-0.1,0.2v0.6c0,0.1,0,0.2,0.1,0.2    C534.3,118.2,534.3,118.2,534.4,118.2z"/>
		<path class="st0" d="M535.8,120.4h-1.4c-0.1,0-0.2,0-0.2,0.1c-0.1,0.1-0.1,0.1-0.1,0.2v0.7c0,0.1,0,0.2,0.1,0.2    c0.1,0.1,0.1,0.1,0.2,0.1h1.5c0.2,0,0.3-0.1,0.4-0.2c0.1-0.1,0.2-0.3,0.2-0.5c0-0.2-0.1-0.3-0.2-0.5    C536.2,120.4,536,120.4,535.8,120.4z"/>
		<path class="st0" d="M525.9,119.5c-0.1-0.3-0.2-0.6-0.3-0.8c0-0.1-0.1-0.1-0.1-0.1c0,0-0.1,0-0.1,0.1l-0.7,1.6c0,0.1,0,0.1,0,0.2    c0,0.1,0.1,0.1,0.2,0.1h1.2c0.1,0,0.2,0,0.2-0.1c0-0.1,0-0.1,0-0.2C526.2,120.1,526,119.8,525.9,119.5z"/>
		<path class="st0" d="M566.7,117.4c-0.1-0.1-0.2-0.2-0.3-0.3c-0.1-0.1-0.3-0.1-0.5-0.1h-1.4c-0.1,0-0.2,0-0.2,0.1    c-0.1,0.1-0.1,0.1-0.1,0.2v1.4c0,0.1,0,0.2,0.1,0.2c0.1,0.1,0.1,0.1,0.2,0.1h1.4c0.1,0,0.2,0,0.3-0.1c0.1,0,0.2-0.1,0.3-0.2    c0.1-0.1,0.2-0.2,0.2-0.3c0.1-0.1,0.1-0.3,0.1-0.4c0-0.1,0-0.2,0-0.3C566.8,117.6,566.8,117.5,566.7,117.4z"/>
		<path class="st0" d="M625.9,117.7c-0.2-0.2-0.5-0.4-0.8-0.5c-0.3-0.1-0.6-0.2-0.9-0.2c-0.3,0-0.6,0.1-0.9,0.2    c-0.3,0.1-0.5,0.3-0.7,0.5c-0.2,0.2-0.4,0.5-0.5,0.8s-0.2,0.6-0.2,0.9c0,0.3,0.1,0.6,0.2,0.9c0.1,0.3,0.3,0.6,0.5,0.8    c0.2,0.2,0.5,0.4,0.7,0.5c0.3,0.1,0.6,0.2,0.9,0.2c0.3,0,0.6-0.1,0.9-0.2c0.3-0.1,0.5-0.3,0.8-0.5c0.2-0.2,0.4-0.5,0.5-0.8    c0.1-0.3,0.2-0.6,0.2-0.9c0-0.3-0.1-0.6-0.2-0.9S626.1,117.9,625.9,117.7z"/>
		<g>
			<path class="st0" d="M660.6,108.9c-107.1,0-214.2,0-321.4,0c-0.3,0-0.3,0.4-0.2,0.7c0.5,5.7-1.6,9.8-3.4,13.7     c-0.9,1.9-2.1,3.9-1.9,5.3c109,0,217.9,0,326.9,0C660.7,122.9,660.6,115.3,660.6,108.9z M350,116.7c0,0.1,0,0.2-0.1,0.2     c-0.1,0.1-0.1,0.1-0.2,0.1h-1.8c-0.1,0-0.2,0-0.2,0.1c-0.1,0.1-0.1,0.1-0.1,0.2v6.5c0,0.1,0,0.2-0.1,0.2     c-0.1,0.1-0.1,0.1-0.2,0.1h-1.9c-0.1,0-0.2,0-0.2-0.1c-0.1-0.1-0.1-0.1-0.1-0.2v-6.5c0-0.1,0-0.2-0.1-0.2     c-0.1-0.1-0.1-0.1-0.2-0.1h-1.8c-0.1,0-0.2,0-0.2-0.1c-0.1-0.1-0.1-0.1-0.1-0.2v-1.8c0-0.1,0-0.2,0.1-0.2     c0.1-0.1,0.1-0.1,0.2-0.1h6.9c0.1,0,0.2,0,0.2,0.1c0.1,0.1,0.1,0.1,0.1,0.2V116.7z M359.5,123.8c0,0.1,0,0.2-0.1,0.2     c-0.1,0.1-0.1,0.1-0.2,0.1h-2c-0.1,0-0.2,0-0.2-0.1c-0.1-0.1-0.1-0.1-0.1-0.2V121c0-0.1,0-0.2-0.1-0.2c-0.1-0.1-0.1-0.1-0.2-0.1     H354c-0.1,0-0.2,0-0.2,0.1c-0.1,0.1-0.1,0.1-0.1,0.2v2.8c0,0.1,0,0.2-0.1,0.2c-0.1,0.1-0.1,0.1-0.2,0.1h-1.9     c-0.1,0-0.2,0-0.2-0.1c-0.1-0.1-0.1-0.1-0.1-0.2v-8.9c0-0.1,0-0.2,0.1-0.2c0.1-0.1,0.1-0.1,0.2-0.1h1.9c0.1,0,0.2,0,0.2,0.1     c0.1,0.1,0.1,0.1,0.1,0.2v3.1c0,0.1,0,0.2,0.1,0.2c0.1,0.1,0.1,0.1,0.2,0.1h2.7c0.1,0,0.2,0,0.2-0.1c0.1-0.1,0.1-0.1,0.1-0.2     v-3.1c0-0.1,0-0.2,0.1-0.2c0.1-0.1,0.1-0.1,0.2-0.1h2c0.1,0,0.2,0,0.2,0.1c0.1,0.1,0.1,0.1,0.1,0.2V123.8z M368.5,116.7     c0,0.1,0,0.2-0.1,0.2c-0.1,0.1-0.1,0.1-0.2,0.1h-4c-0.1,0-0.2,0-0.2,0.1c-0.1,0.1-0.1,0.1-0.1,0.2v0.5c0,0.1,0,0.2,0.1,0.2     c0.1,0.1,0.1,0.1,0.2,0.1h3.5c0.1,0,0.2,0,0.2,0.1c0.1,0.1,0.1,0.1,0.1,0.2v1.8c0,0.1,0,0.2-0.1,0.2c-0.1,0.1-0.1,0.1-0.2,0.1     h-3.5c-0.1,0-0.2,0-0.2,0.1c-0.1,0.1-0.1,0.1-0.1,0.2v0.5c0,0.1,0,0.2,0.1,0.2c0.1,0.1,0.1,0.1,0.2,0.1h4c0.1,0,0.2,0,0.2,0.1     c0.1,0.1,0.1,0.1,0.1,0.2v1.8c0,0.1,0,0.2-0.1,0.2c-0.1,0.1-0.1,0.1-0.2,0.1h-6.6c-0.1,0-0.2,0-0.2-0.1c-0.1-0.1-0.1-0.1-0.1-0.2     v-8.9c0-0.1,0-0.2,0.1-0.2c0.1-0.1,0.1-0.1,0.2-0.1h6.6c0.1,0,0.2,0,0.2,0.1c0.1,0.1,0.1,0.1,0.1,0.2V116.7z M385.2,123.8     c0,0.1,0,0.2-0.1,0.2c-0.1,0.1-0.1,0.1-0.2,0.1h-2c-0.1,0-0.2,0-0.2-0.1c-0.1-0.1-0.1-0.1-0.1-0.2v-4.2c0-0.1,0-0.1-0.1-0.1     c-0.1,0-0.1,0-0.2,0.1l-2.2,3.5c0,0.1-0.1,0.1-0.2,0.1s-0.2,0-0.2-0.1l-2.2-3.5c0-0.1-0.1-0.1-0.2-0.1c-0.1,0-0.1,0.1-0.1,0.1     v4.2c0,0.1,0,0.2-0.1,0.2c-0.1,0.1-0.1,0.1-0.2,0.1h-2c-0.1,0-0.2,0-0.2-0.1c-0.1-0.1-0.1-0.1-0.1-0.2v-8.9c0-0.1,0-0.2,0.1-0.2     c0.1-0.1,0.1-0.1,0.2-0.1h1.8c0.1,0,0.2,0,0.3,0.1c0.1,0.1,0.2,0.1,0.2,0.2l2.5,3.7c0.1,0.1,0.1,0.1,0.2,0.1s0.1,0,0.2-0.1     l2.5-3.7c0.1-0.1,0.1-0.1,0.2-0.2c0.1-0.1,0.2-0.1,0.3-0.1h1.8c0.1,0,0.2,0,0.2,0.1c0.1,0.1,0.1,0.1,0.1,0.2V123.8z M396.4,124     c0,0.1-0.1,0.1-0.3,0.1h-2.2c-0.1,0-0.2,0-0.3-0.1c-0.1-0.1-0.1-0.1-0.2-0.2l-0.4-0.8c0-0.1-0.1-0.1-0.2-0.2     c-0.1-0.1-0.2-0.1-0.3-0.1h-2.7c-0.1,0-0.2,0-0.3,0.1c-0.1,0.1-0.1,0.1-0.2,0.2l-0.4,0.8c0,0.1-0.1,0.1-0.2,0.2     c-0.1,0.1-0.2,0.1-0.3,0.1h-2.2c0,0-0.1,0-0.1,0c0,0-0.1,0-0.1-0.1c0,0,0-0.1-0.1-0.1c0-0.1,0-0.1,0-0.2l3.8-8.8     c0-0.1,0.1-0.1,0.2-0.2c0.1-0.1,0.2-0.1,0.3-0.1h1.8c0.1,0,0.2,0,0.3,0.1c0.1,0.1,0.1,0.1,0.2,0.2l3.8,8.8     C396.5,123.8,396.5,123.9,396.4,124z M414.7,115l-3.2,4.2c-0.1,0.1-0.1,0.2-0.1,0.2c0,0.1,0,0.2,0.1,0.2l3.2,4.1     c0.1,0.1,0.1,0.1,0,0.2c0,0.1-0.1,0.1-0.2,0.1H412c-0.1,0-0.2,0-0.3-0.1c-0.1-0.1-0.2-0.1-0.2-0.2l-1.6-2.3     c-0.1-0.1-0.1-0.1-0.2-0.1s-0.1,0-0.2,0.1l-1.6,2.3c-0.1,0.1-0.1,0.1-0.2,0.2c-0.1,0.1-0.2,0.1-0.3,0.1h-2.5c0,0,0,0,0,0     c0,0,0,0,0,0h-2.4c-0.1,0-0.2,0-0.3-0.1c-0.1,0-0.2-0.1-0.2-0.2c-0.3-0.4-0.5-0.7-0.8-1.1c-0.3-0.4-0.5-0.8-0.8-1.1     c-0.1-0.1-0.1-0.1-0.2-0.2c-0.1,0-0.2-0.1-0.3-0.1h-0.3c-0.1,0-0.2,0-0.2,0.1c-0.1,0.1-0.1,0.1-0.1,0.2v2.1c0,0.1,0,0.2-0.1,0.2     c-0.1,0.1-0.1,0.1-0.2,0.1h-1.9c-0.1,0-0.2,0-0.2-0.1c-0.1-0.1-0.1-0.1-0.1-0.2v-8.9c0-0.1,0-0.2,0.1-0.2     c0.1-0.1,0.1-0.1,0.2-0.1h4c0.5,0,1,0.1,1.4,0.3c0.4,0.2,0.8,0.4,1.1,0.7c0.3,0.3,0.5,0.7,0.7,1.1c0.2,0.4,0.3,0.9,0.3,1.4     c0,0.3,0,0.6-0.1,0.8c-0.1,0.3-0.2,0.5-0.3,0.8c-0.1,0.2-0.3,0.5-0.4,0.7c-0.2,0.2-0.4,0.4-0.6,0.5c-0.1,0.1-0.1,0.1-0.1,0.2     c0,0.1,0,0.1,0,0.2c0.3,0.4,0.7,0.9,1,1.3c0.3,0.4,0.6,0.8,0.9,1.1l3.1-4c0.1-0.1,0.1-0.2,0.1-0.2c0-0.1,0-0.2-0.1-0.2l-3.3-4.2     c-0.1-0.1-0.1-0.1,0-0.2c0-0.1,0.1-0.1,0.2-0.1h2.5c0.1,0,0.2,0,0.3,0.1c0.1,0.1,0.2,0.1,0.2,0.2l1.6,2.4     c0.1,0.1,0.1,0.1,0.2,0.1s0.1,0,0.2-0.1c0.3-0.4,0.6-0.8,0.8-1.2c0.3-0.4,0.5-0.8,0.8-1.2c0.1-0.1,0.1-0.1,0.2-0.2     c0.1,0,0.2-0.1,0.3-0.1h2.5c0.1,0,0.2,0,0.2,0.1C414.8,114.8,414.8,114.9,414.7,115z M418.3,123.8c0,0.1,0,0.2-0.1,0.2     c-0.1,0.1-0.1,0.1-0.2,0.1h-2c-0.1,0-0.2,0-0.2-0.1c-0.1-0.1-0.1-0.1-0.1-0.2v-8.9c0-0.1,0-0.2,0.1-0.2c0.1-0.1,0.1-0.1,0.2-0.1     h2c0.1,0,0.2,0,0.2,0.1c0.1,0.1,0.1,0.1,0.1,0.2V123.8z M427.2,122.6c-0.2,0.4-0.4,0.7-0.8,0.9c-0.3,0.2-0.7,0.4-1.2,0.5     c-0.5,0.1-1,0.2-1.5,0.2c-0.5,0-0.9,0-1.3-0.1c-0.4-0.1-0.8-0.2-1.1-0.3s-0.7-0.3-0.9-0.5c-0.3-0.2-0.6-0.4-0.8-0.6     c-0.1-0.1-0.1-0.1-0.1-0.2c0-0.1,0-0.2,0.1-0.2l1-1.4c0.1-0.1,0.1-0.1,0.2-0.1c0.1,0,0.2,0,0.2,0c0.5,0.3,0.9,0.5,1.4,0.7     c0.5,0.2,0.9,0.3,1.3,0.3c0.4,0,0.7-0.1,0.9-0.2c0.2-0.1,0.3-0.3,0.3-0.5c0-0.1,0-0.2-0.1-0.3c-0.1-0.1-0.2-0.1-0.3-0.2     c-0.1,0-0.3-0.1-0.5-0.1c-0.2,0-0.4-0.1-0.6-0.1c-0.2,0-0.4-0.1-0.7-0.1c-0.3,0-0.5-0.1-0.8-0.2c-0.3-0.1-0.5-0.2-0.8-0.3     c-0.3-0.1-0.5-0.3-0.7-0.5c-0.2-0.2-0.4-0.5-0.5-0.8c-0.1-0.3-0.2-0.7-0.2-1.1c0-0.6,0.1-1.1,0.4-1.5c0.2-0.4,0.5-0.7,0.9-0.9     c0.4-0.2,0.8-0.4,1.2-0.5c0.4-0.1,0.9-0.1,1.3-0.1c0.7,0,1.4,0.1,2,0.3c0.6,0.2,1.1,0.5,1.7,0.9c0.1,0.1,0.1,0.1,0.1,0.2     c0,0.1,0,0.2-0.1,0.2l-1,1.4c-0.1,0.1-0.1,0.1-0.2,0.1c-0.1,0-0.2,0-0.2-0.1c-0.4-0.3-0.9-0.5-1.2-0.6c-0.4-0.1-0.7-0.2-1.1-0.2     c-0.1,0-0.2,0-0.3,0c-0.1,0-0.2,0-0.4,0.1c-0.1,0-0.2,0.1-0.3,0.1c-0.1,0.1-0.1,0.2-0.1,0.3c0,0.1,0.1,0.2,0.3,0.3     c0.2,0.1,0.4,0.2,0.6,0.2c0.2,0.1,0.5,0.1,0.7,0.2c0.2,0,0.4,0.1,0.4,0.1c0.3,0.1,0.7,0.1,1,0.3c0.4,0.1,0.7,0.3,1,0.5     c0.3,0.2,0.6,0.5,0.8,0.9c0.2,0.4,0.3,0.8,0.3,1.4C427.5,121.8,427.4,122.3,427.2,122.6z M435.1,116.7c0,0.1,0,0.2-0.1,0.2     c-0.1,0.1-0.1,0.1-0.2,0.1H433c-0.1,0-0.2,0-0.2,0.1c-0.1,0.1-0.1,0.1-0.1,0.2v6.5c0,0.1,0,0.2-0.1,0.2c-0.1,0.1-0.1,0.1-0.2,0.1     h-2c-0.1,0-0.2,0-0.2-0.1c-0.1-0.1-0.1-0.1-0.1-0.2v-6.5c0-0.1,0-0.2-0.1-0.2c-0.1-0.1-0.1-0.1-0.2-0.1h-1.8     c-0.1,0-0.2,0-0.2-0.1c-0.1-0.1-0.1-0.1-0.1-0.2v-1.8c0-0.1,0-0.2,0.1-0.2c0.1-0.1,0.1-0.1,0.2-0.1h6.9c0.1,0,0.2,0,0.2,0.1     c0.1,0.1,0.1,0.1,0.1,0.2V116.7z M446.2,124c-0.1,0.1-0.2,0.1-0.3,0.1h-1.7c-0.1,0-0.2,0-0.3-0.1c-0.1-0.1-0.1-0.1-0.2-0.2     l-3.9-8.9c0-0.1,0-0.2,0-0.3c0-0.1,0.1-0.1,0.2-0.1h2.1c0.1,0,0.2,0,0.3,0.1c0.1,0.1,0.1,0.1,0.2,0.2l2.3,5.2     c0,0.1,0.1,0.1,0.2,0.1c0.1,0,0.1,0,0.2-0.1l2.3-5.2c0-0.1,0.1-0.1,0.2-0.2c0.1-0.1,0.2-0.1,0.3-0.1h2.2c0.1,0,0.2,0,0.2,0.1     c0,0.1,0,0.1,0,0.2l-4,8.9C446.3,123.9,446.2,124,446.2,124z M459.7,121.3c-0.3,0.6-0.6,1.1-1.1,1.6c-0.4,0.4-1,0.8-1.6,1.1     c-0.6,0.3-1.2,0.4-1.9,0.4c-0.7,0-1.3-0.1-1.9-0.4c-0.6-0.3-1.1-0.6-1.6-1.1c-0.4-0.4-0.8-1-1.1-1.6c-0.3-0.6-0.4-1.2-0.4-1.9     c0-0.7,0.1-1.3,0.4-1.9c0.3-0.6,0.6-1.1,1.1-1.6c0.4-0.4,1-0.8,1.6-1.1c0.6-0.3,1.2-0.4,1.9-0.4c0.7,0,1.3,0.1,1.9,0.4     c0.6,0.3,1.1,0.6,1.6,1.1c0.4,0.4,0.8,1,1.1,1.6c0.3,0.6,0.4,1.2,0.4,1.9C460.1,120,460,120.7,459.7,121.3z M464.1,123.8     c0,0.1,0,0.2-0.1,0.2c-0.1,0.1-0.1,0.1-0.2,0.1h-2c-0.1,0-0.2,0-0.2-0.1c-0.1-0.1-0.1-0.1-0.1-0.2v-8.9c0-0.1,0-0.2,0.1-0.2     c0.1-0.1,0.1-0.1,0.2-0.1h2c0.1,0,0.2,0,0.2,0.1c0.1,0.1,0.1,0.1,0.1,0.2V123.8z M468.2,120.3c0.1,0.3,0.3,0.6,0.5,0.8     s0.5,0.4,0.8,0.5c0.3,0.1,0.6,0.2,0.9,0.2c0.5,0,0.9-0.1,1.3-0.3c0.4-0.2,0.7-0.5,0.9-0.9c0-0.1,0.1-0.1,0.2-0.2     c0.1,0,0.2,0,0.3,0l1.8,0.7c0.1,0,0.1,0.1,0.2,0.2c0,0.1,0,0.1,0,0.2c-0.3,0.4-0.5,0.8-0.8,1.1c-0.3,0.3-0.6,0.6-1,0.8     c-0.4,0.2-0.8,0.4-1.3,0.5c-0.5,0.1-1,0.2-1.5,0.2c-0.7,0-1.3-0.1-1.9-0.4c-0.6-0.3-1.1-0.6-1.6-1.1c-0.5-0.4-0.8-1-1.1-1.6     c-0.3-0.6-0.4-1.2-0.4-1.9c0-0.7,0.1-1.3,0.4-1.9c0.3-0.6,0.6-1.1,1.1-1.6c0.5-0.4,1-0.8,1.6-1.1c0.6-0.3,1.3-0.4,1.9-0.4     c0.6,0,1.1,0.1,1.5,0.2c0.5,0.1,0.9,0.3,1.2,0.5c0.4,0.2,0.7,0.5,1,0.9s0.6,0.7,0.8,1.1c0,0.1,0.1,0.1,0,0.2     c0,0.1-0.1,0.1-0.2,0.2l-1.8,0.7c-0.1,0-0.2,0-0.3,0c-0.1,0-0.2-0.1-0.2-0.2c-0.3-0.4-0.6-0.7-0.9-0.9c-0.4-0.2-0.8-0.3-1.3-0.3     c-0.3,0-0.6,0.1-0.9,0.2c-0.3,0.1-0.5,0.3-0.8,0.6c-0.2,0.2-0.4,0.5-0.5,0.8c-0.1,0.3-0.2,0.6-0.2,0.9     C468,119.7,468.1,120,468.2,120.3z M483.3,116.7c0,0.1,0,0.2-0.1,0.2c-0.1,0.1-0.1,0.1-0.2,0.1h-4c-0.1,0-0.2,0-0.2,0.1     c-0.1,0.1-0.1,0.1-0.1,0.2v0.5c0,0.1,0,0.2,0.1,0.2c0.1,0.1,0.1,0.1,0.2,0.1h3.5c0.1,0,0.2,0,0.2,0.1c0.1,0.1,0.1,0.1,0.1,0.2     v1.8c0,0.1,0,0.2-0.1,0.2c-0.1,0.1-0.1,0.1-0.2,0.1h-3.5c-0.1,0-0.2,0-0.2,0.1c-0.1,0.1-0.1,0.1-0.1,0.2v0.5c0,0.1,0,0.2,0.1,0.2     c0.1,0.1,0.1,0.1,0.2,0.1h4c0.1,0,0.2,0,0.2,0.1c0.1,0.1,0.1,0.1,0.1,0.2v1.8c0,0.1,0,0.2-0.1,0.2c-0.1,0.1-0.1,0.1-0.2,0.1h-6.6     c-0.1,0-0.2,0-0.2-0.1c-0.1-0.1-0.1-0.1-0.1-0.2v-8.9c0-0.1,0-0.2,0.1-0.2c0.1-0.1,0.1-0.1,0.2-0.1h6.6c0.1,0,0.2,0,0.2,0.1     c0.1,0.1,0.1,0.1,0.1,0.2V116.7z M498.4,121.3c-0.3,0.6-0.6,1.1-1.1,1.6c-0.4,0.4-1,0.8-1.6,1.1c-0.6,0.3-1.2,0.4-1.9,0.4     c-0.7,0-1.3-0.1-1.9-0.4c-0.6-0.3-1.1-0.6-1.6-1.1c-0.4-0.4-0.8-1-1.1-1.6c-0.3-0.6-0.4-1.2-0.4-1.9c0-0.7,0.1-1.3,0.4-1.9     c0.3-0.6,0.6-1.1,1.1-1.6c0.4-0.4,1-0.8,1.6-1.1c0.6-0.3,1.2-0.4,1.9-0.4c0.7,0,1.3,0.1,1.9,0.4c0.6,0.3,1.1,0.6,1.6,1.1     c0.4,0.4,0.8,1,1.1,1.6c0.3,0.6,0.4,1.2,0.4,1.9C498.8,120,498.6,120.7,498.4,121.3z M507.3,116.7c0,0.1,0,0.2-0.1,0.2     c-0.1,0.1-0.1,0.1-0.2,0.1h-4c-0.1,0-0.2,0-0.2,0.1c-0.1,0.1-0.1,0.1-0.1,0.2v0.5c0,0.1,0,0.2,0.1,0.2c0.1,0.1,0.1,0.1,0.2,0.1     h3.5c0.1,0,0.2,0,0.2,0.1c0.1,0.1,0.1,0.1,0.1,0.2v1.8c0,0.1,0,0.2-0.1,0.2c-0.1,0.1-0.1,0.1-0.2,0.1H503c-0.1,0-0.2,0-0.2,0.1     c-0.1,0.1-0.1,0.1-0.1,0.2v2.9c0,0.1,0,0.2-0.1,0.2c-0.1,0.1-0.1,0.1-0.2,0.1h-2c-0.1,0-0.2,0-0.2-0.1c-0.1-0.1-0.1-0.1-0.1-0.2     v-8.9c0-0.1,0-0.2,0.1-0.2c0.1-0.1,0.1-0.1,0.2-0.1h6.6c0.1,0,0.2,0,0.2,0.1c0.1,0.1,0.1,0.1,0.1,0.2V116.7z M520.1,123.8     c0,0.1,0,0.2-0.1,0.2c-0.1,0.1-0.1,0.1-0.2,0.1h-6.5c-0.1,0-0.2,0-0.2-0.1c-0.1-0.1-0.1-0.1-0.1-0.2v-8.9c0-0.1,0-0.2,0.1-0.2     c0.1-0.1,0.1-0.1,0.2-0.1h2c0.1,0,0.2,0,0.2,0.1c0.1,0.1,0.1,0.1,0.1,0.2v6.5c0,0.1,0,0.2,0.1,0.2c0.1,0.1,0.1,0.1,0.2,0.1h3.9     c0.1,0,0.2,0,0.2,0.1c0.1,0.1,0.1,0.1,0.1,0.2V123.8z M530.6,124c0,0.1-0.1,0.1-0.3,0.1h-2.2c-0.1,0-0.2,0-0.3-0.1     c-0.1-0.1-0.1-0.1-0.2-0.2l-0.4-0.8c0-0.1-0.1-0.1-0.2-0.2c-0.1-0.1-0.2-0.1-0.3-0.1h-2.7c-0.1,0-0.2,0-0.3,0.1     c-0.1,0.1-0.1,0.1-0.2,0.2l-0.4,0.8c0,0.1-0.1,0.1-0.2,0.2c-0.1,0.1-0.2,0.1-0.3,0.1h-2.2c0,0-0.1,0-0.1,0c0,0-0.1,0-0.1-0.1     c0,0,0-0.1-0.1-0.1c0-0.1,0-0.1,0-0.2l3.8-8.8c0-0.1,0.1-0.1,0.2-0.2c0.1-0.1,0.2-0.1,0.3-0.1h1.8c0.1,0,0.2,0,0.3,0.1     c0.1,0.1,0.1,0.1,0.2,0.2l3.8,8.8C530.7,123.8,530.7,123.9,530.6,124z M539,122.6c-0.2,0.4-0.4,0.7-0.7,0.9     c-0.3,0.2-0.7,0.4-1,0.5c-0.4,0.1-0.8,0.1-1.2,0.1h-4.1c-0.1,0-0.2,0-0.2-0.1c-0.1-0.1-0.1-0.1-0.1-0.2v-8.9c0-0.1,0-0.2,0.1-0.2     c0.1-0.1,0.1-0.1,0.2-0.1h3.9c0.4,0,0.8,0,1.2,0.1c0.4,0.1,0.7,0.2,1,0.4c0.3,0.2,0.5,0.5,0.7,0.8c0.2,0.3,0.3,0.7,0.3,1.2     c0,0.4-0.1,0.7-0.3,1c-0.2,0.3-0.4,0.5-0.6,0.7c-0.2,0.1-0.1,0.2,0,0.3c0.1,0.1,0.3,0.2,0.4,0.3c0.1,0.1,0.3,0.3,0.4,0.4     c0.1,0.2,0.2,0.4,0.3,0.6c0.1,0.2,0.1,0.5,0.1,0.7C539.2,121.8,539.2,122.3,539,122.6z M549.7,121.3c-0.3,0.6-0.6,1.1-1.1,1.6     c-0.4,0.4-1,0.8-1.6,1.1c-0.6,0.3-1.2,0.4-1.9,0.4c-0.7,0-1.3-0.1-1.9-0.4c-0.6-0.3-1.1-0.6-1.6-1.1c-0.4-0.4-0.8-1-1.1-1.6     c-0.3-0.6-0.4-1.2-0.4-1.9c0-0.7,0.1-1.3,0.4-1.9c0.3-0.6,0.6-1.1,1.1-1.6c0.4-0.4,1-0.8,1.6-1.1c0.6-0.3,1.2-0.4,1.9-0.4     c0.7,0,1.3,0.1,1.9,0.4c0.6,0.3,1.1,0.6,1.6,1.1c0.4,0.4,0.8,1,1.1,1.6c0.3,0.6,0.4,1.2,0.4,1.9     C550.1,120,549.9,120.7,549.7,121.3z M559.7,120.2c0,0.6-0.1,1.2-0.3,1.7c-0.2,0.5-0.5,0.9-0.8,1.3c-0.4,0.4-0.8,0.6-1.3,0.8     c-0.5,0.2-1.1,0.3-1.7,0.3s-1.2-0.1-1.7-0.3c-0.5-0.2-0.9-0.5-1.3-0.8c-0.4-0.4-0.6-0.8-0.8-1.3c-0.2-0.5-0.3-1.1-0.3-1.7v-5.3     c0-0.1,0-0.2,0.1-0.2c0.1-0.1,0.1-0.1,0.2-0.1h2c0.1,0,0.2,0,0.2,0.1c0.1,0.1,0.1,0.1,0.1,0.2v5.3c0,0.3,0.1,0.6,0.2,0.8     c0.1,0.2,0.2,0.4,0.4,0.5c0.2,0.1,0.3,0.2,0.5,0.3c0.2,0.1,0.3,0.1,0.5,0.1s0.3,0,0.5-0.1c0.2-0.1,0.4-0.1,0.5-0.3     c0.2-0.1,0.3-0.3,0.4-0.5c0.1-0.2,0.2-0.5,0.2-0.8v-5.3c0-0.1,0-0.2,0.1-0.2c0.1-0.1,0.1-0.1,0.2-0.1h2c0.1,0,0.2,0,0.2,0.1     c0.1,0.1,0.1,0.1,0.1,0.2V120.2z M570.1,124c0,0.1-0.1,0.1-0.2,0.1h-2.4c-0.1,0-0.2,0-0.3-0.1c-0.1,0-0.2-0.1-0.2-0.2     c-0.3-0.4-0.5-0.7-0.8-1.1c-0.3-0.4-0.5-0.8-0.8-1.1c-0.1-0.1-0.1-0.1-0.2-0.2c-0.1,0-0.2-0.1-0.3-0.1h-0.3c-0.1,0-0.2,0-0.2,0.1     c-0.1,0.1-0.1,0.1-0.1,0.2v2.1c0,0.1,0,0.2-0.1,0.2c-0.1,0.1-0.1,0.1-0.2,0.1H562c-0.1,0-0.2,0-0.2-0.1c-0.1-0.1-0.1-0.1-0.1-0.2     v-8.9c0-0.1,0-0.2,0.1-0.2c0.1-0.1,0.1-0.1,0.2-0.1h4c0.5,0,1,0.1,1.4,0.3s0.8,0.4,1.1,0.7c0.3,0.3,0.5,0.7,0.7,1.1     c0.2,0.4,0.3,0.9,0.3,1.4c0,0.3,0,0.6-0.1,0.8c-0.1,0.3-0.2,0.5-0.3,0.8c-0.1,0.2-0.3,0.5-0.4,0.7c-0.2,0.2-0.4,0.4-0.6,0.5     c-0.1,0.1-0.1,0.1-0.1,0.2c0,0.1,0,0.1,0,0.2c0.3,0.4,0.7,0.9,1,1.3c0.4,0.5,0.7,0.9,1,1.3C570.1,123.8,570.1,123.9,570.1,124z      M584.7,124c0,0.1-0.1,0.1-0.3,0.1h-2.2c-0.1,0-0.2,0-0.3-0.1c-0.1-0.1-0.1-0.1-0.2-0.2l-0.4-0.8c0-0.1-0.1-0.1-0.2-0.2     c-0.1-0.1-0.2-0.1-0.3-0.1h-2.7c-0.1,0-0.2,0-0.3,0.1c-0.1,0.1-0.1,0.1-0.2,0.2l-0.4,0.8c0,0.1-0.1,0.1-0.2,0.2     c-0.1,0.1-0.2,0.1-0.3,0.1h-2.2c0,0-0.1,0-0.1,0c0,0-0.1,0-0.1-0.1c0,0,0-0.1-0.1-0.1c0-0.1,0-0.1,0-0.2l3.8-8.8     c0-0.1,0.1-0.1,0.2-0.2c0.1-0.1,0.2-0.1,0.3-0.1h1.8c0.1,0,0.2,0,0.3,0.1c0.1,0.1,0.1,0.1,0.2,0.2l3.8,8.8     C584.8,123.8,584.8,123.9,584.7,124z M594.6,123.8c0,0.1,0,0.2-0.1,0.2c-0.1,0.1-0.1,0.1-0.2,0.1h-1.9c-0.1,0-0.2,0-0.3-0.1     c-0.1-0.1-0.2-0.1-0.2-0.2l-3.4-4.8c-0.1-0.1-0.1-0.1-0.2-0.1c-0.1,0-0.1,0.1-0.1,0.1v4.7c0,0.1,0,0.2-0.1,0.2     c-0.1,0.1-0.1,0.1-0.2,0.1H586c-0.1,0-0.2,0-0.2-0.1c-0.1-0.1-0.1-0.1-0.1-0.2v-8.9c0-0.1,0-0.2,0.1-0.2c0.1-0.1,0.1-0.1,0.2-0.1     h1.9c0.1,0,0.2,0,0.3,0.1c0.1,0,0.2,0.1,0.2,0.2l3.4,4.8c0.1,0.1,0.1,0.1,0.2,0.1c0.1,0,0.1-0.1,0.1-0.1v-4.7     c0-0.1,0-0.2,0.1-0.2c0.1-0.1,0.1-0.1,0.2-0.1h1.9c0.1,0,0.2,0,0.2,0.1c0.1,0.1,0.1,0.1,0.1,0.2V123.8z M604.9,121.4     c-0.2,0.6-0.6,1.1-1.1,1.6c-0.4,0.4-0.9,0.7-1.5,0.9c-0.6,0.2-1.2,0.3-1.9,0.3h-3.5c-0.1,0-0.2,0-0.2-0.1     c-0.1-0.1-0.1-0.1-0.1-0.2v-8.9c0-0.1,0-0.2,0.1-0.2c0.1-0.1,0.1-0.1,0.2-0.1h3.5c1.4,0,2.5,0.4,3.3,1.2c0.5,0.4,0.8,0.9,1.1,1.5     c0.2,0.6,0.4,1.3,0.4,2S605.1,120.8,604.9,121.4z M616.2,120.5c0,0.1-0.1,0.2-0.1,0.3v3c0,0.1,0,0.2-0.1,0.2     c-0.1,0.1-0.1,0.1-0.2,0.1h-2c-0.1,0-0.2,0-0.2-0.1c-0.1-0.1-0.1-0.1-0.1-0.2v-3c0-0.1,0-0.2,0-0.3c0-0.1-0.1-0.2-0.1-0.3     c-0.5-0.9-1.1-1.8-1.6-2.6c-0.5-0.9-1.1-1.7-1.6-2.7c0-0.1-0.1-0.2,0-0.2c0-0.1,0.1-0.1,0.2-0.1h2.3c0.1,0,0.2,0,0.3,0.1     c0.1,0.1,0.2,0.1,0.2,0.2l1.6,2.8c0,0.1,0.1,0.1,0.2,0.1c0.1,0,0.1,0,0.2-0.1l1.6-2.8c0-0.1,0.1-0.1,0.2-0.2     c0.1-0.1,0.2-0.1,0.3-0.1h2.3c0.1,0,0.1,0,0.2,0.1c0,0.1,0,0.2,0,0.3l-3.3,5.3C616.3,120.3,616.3,120.4,616.2,120.5z      M628.8,121.3c-0.3,0.6-0.6,1.1-1.1,1.6c-0.4,0.4-1,0.8-1.6,1.1c-0.6,0.3-1.2,0.4-1.9,0.4c-0.7,0-1.3-0.1-1.9-0.4     c-0.6-0.3-1.1-0.6-1.6-1.1c-0.4-0.4-0.8-1-1.1-1.6c-0.3-0.6-0.4-1.2-0.4-1.9c0-0.7,0.1-1.3,0.4-1.9c0.3-0.6,0.6-1.1,1.1-1.6     c0.4-0.4,1-0.8,1.6-1.1c0.6-0.3,1.2-0.4,1.9-0.4c0.7,0,1.3,0.1,1.9,0.4c0.6,0.3,1.1,0.6,1.6,1.1c0.4,0.4,0.8,1,1.1,1.6     c0.3,0.6,0.4,1.2,0.4,1.9C629.2,120,629.1,120.7,628.8,121.3z M638.8,120.2c0,0.6-0.1,1.2-0.3,1.7c-0.2,0.5-0.5,0.9-0.8,1.3     c-0.4,0.4-0.8,0.6-1.3,0.8c-0.5,0.2-1.1,0.3-1.7,0.3c-0.6,0-1.2-0.1-1.7-0.3c-0.5-0.2-0.9-0.5-1.3-0.8c-0.4-0.4-0.6-0.8-0.8-1.3     c-0.2-0.5-0.3-1.1-0.3-1.7v-5.3c0-0.1,0-0.2,0.1-0.2c0.1-0.1,0.1-0.1,0.2-0.1h2c0.1,0,0.2,0,0.2,0.1c0.1,0.1,0.1,0.1,0.1,0.2v5.3     c0,0.3,0.1,0.6,0.2,0.8c0.1,0.2,0.2,0.4,0.4,0.5c0.2,0.1,0.3,0.2,0.5,0.3c0.2,0.1,0.3,0.1,0.5,0.1c0.1,0,0.3,0,0.5-0.1     c0.2-0.1,0.4-0.1,0.5-0.3c0.2-0.1,0.3-0.3,0.4-0.5c0.1-0.2,0.2-0.5,0.2-0.8v-5.3c0-0.1,0-0.2,0.1-0.2c0.1-0.1,0.1-0.1,0.2-0.1h2     c0.1,0,0.2,0,0.2,0.1c0.1,0.1,0.1,0.1,0.1,0.2V120.2z M647.3,116.7c0,0.1,0,0.2-0.1,0.2c-0.1,0.1-0.1,0.1-0.2,0.1h-1.8     c-0.1,0-0.2,0-0.2,0.1c-0.1,0.1-0.1,0.1-0.1,0.2v6.5c0,0.1,0,0.2-0.1,0.2c-0.1,0.1-0.1,0.1-0.2,0.1h-2c-0.1,0-0.2,0-0.2-0.1     c-0.1-0.1-0.1-0.1-0.1-0.2v-6.5c0-0.1,0-0.2-0.1-0.2c-0.1-0.1-0.1-0.1-0.2-0.1h-1.8c-0.1,0-0.2,0-0.2-0.1     c-0.1-0.1-0.1-0.1-0.1-0.2v-1.8c0-0.1,0-0.2,0.1-0.2c0.1-0.1,0.1-0.1,0.2-0.1h6.9c0.1,0,0.2,0,0.2,0.1c0.1,0.1,0.1,0.1,0.1,0.2     V116.7z M656.8,123.8c0,0.1,0,0.2-0.1,0.2c-0.1,0.1-0.1,0.1-0.2,0.1h-2c-0.1,0-0.2,0-0.2-0.1c-0.1-0.1-0.1-0.1-0.1-0.2V121     c0-0.1,0-0.2-0.1-0.2c-0.1-0.1-0.1-0.1-0.2-0.1h-2.7c-0.1,0-0.2,0-0.2,0.1c-0.1,0.1-0.1,0.1-0.1,0.2v2.8c0,0.1,0,0.2-0.1,0.2     c-0.1,0.1-0.1,0.1-0.2,0.1h-1.9c-0.1,0-0.2,0-0.2-0.1c-0.1-0.1-0.1-0.1-0.1-0.2v-8.9c0-0.1,0-0.2,0.1-0.2     c0.1-0.1,0.1-0.1,0.2-0.1h1.9c0.1,0,0.2,0,0.2,0.1c0.1,0.1,0.1,0.1,0.1,0.2v3.1c0,0.1,0,0.2,0.1,0.2c0.1,0.1,0.1,0.1,0.2,0.1h2.7     c0.1,0,0.2,0,0.2-0.1c0.1-0.1,0.1-0.1,0.1-0.2v-3.1c0-0.1,0-0.2,0.1-0.2c0.1-0.1,0.1-0.1,0.2-0.1h2c0.1,0,0.2,0,0.2,0.1     c0.1,0.1,0.1,0.1,0.1,0.2V123.8z"/>
		</g>
		<path class="st0" d="M391.7,119.5c-0.1-0.3-0.2-0.6-0.3-0.8c0-0.1-0.1-0.1-0.1-0.1c0,0-0.1,0-0.1,0.1l-0.6,1.6c0,0.1,0,0.1,0,0.2    c0,0.1,0.1,0.1,0.2,0.1h1.2c0.1,0,0.1,0,0.2-0.1c0-0.1,0-0.1,0-0.2C392,120.1,391.9,119.8,391.7,119.5z"/>
		<path class="st0" d="M601.9,117.5c-0.2-0.2-0.4-0.3-0.7-0.3c-0.3-0.1-0.5-0.1-0.7-0.1h-1c-0.1,0-0.2,0-0.2,0.1    c-0.1,0.1-0.1,0.1-0.1,0.2v4.1c0,0.1,0,0.2,0.1,0.2c0.1,0.1,0.1,0.1,0.2,0.1h1c0.2,0,0.5,0,0.8-0.1c0.3-0.1,0.5-0.2,0.7-0.3    c0.2-0.2,0.4-0.4,0.5-0.7c0.1-0.3,0.2-0.7,0.2-1.2c0-0.5-0.1-0.9-0.2-1.2C602.3,117.9,602.1,117.6,601.9,117.5z"/>
	</g>
	<g>
		<g>
			<defs>
				<rect id="SVGID_2_" x="59.1" y="21.2" width="95.5" height="111.7"/>
			</defs>
			<clipPath id="SVGID_3_">
				<use xlink:href="#SVGID_2_" style="overflow:visible;"/>
			</clipPath>
			<path class="st1" d="M154.5,84c-0.2-2.6-1.1-5.2-2.3-7c-1.4-2.1-3.1-3.9-4.5-5.5c0,0-0.1-0.1-0.1-0.1l-0.1-0.1l1.3-1.8     c0.3-0.4,0.4-0.8,0.3-1.2c-0.1-0.7-0.7-1.7-3.9-3.6c-2.1-1.3-5-2.8-8.3-4.5c-4.9-2.5-10.7-5.5-15.9-8.9c2.9-1.6,6.2-3.3,10.5-5.4     l0.4-0.2l0.1-0.5c1.9-14.3-5.6-22.4-13.3-23.7c-0.8-0.1-1.6-0.2-2.4-0.2l0,0c-2.8,0-5.5,0.9-7.4,2.6c-0.1,0.1-0.1,0.1-0.2,0.2     l-2,1.9c-0.6,0.5-1,0.9-1,1L66.6,63.6l-2.7,2.6l-1.6,1.5l0,0l0,0c-2.1,2.3-3.1,5.3-3.1,8.7c0,1.8,0.3,3.5,0.9,5.1     c0.6,1.6,1.6,3.2,2.8,4.7c1.2,1.5,2.8,2.9,4.6,4.2c1.8,1.3,4,2.6,6.4,3.8c8.4,4.1,18.9,6.9,27.3,9c4.2,1.1,7.8,2,10.5,2.9     c1,0.4,1.8,0.7,2.5,1l-0.9,1.2l-0.7,0.9c0,0-0.1,0.1-0.1,0.1c-0.2,0.3-0.2,0.6-0.2,0.9c0.2,0.8,1.1,1.3,2.3,2     c0.5,0.3,0.9,0.5,1.3,0.8c1.7,1.2,3.8,2.6,5.6,4.2l-0.1,0.1l-5.4,7.4L115,126l0,0c0,0,0,0,0,0c-0.4,0.5-0.6,1-0.5,1.7     c0.2,1.5,1.8,3,3.1,4l0.7,0.6l0.5-0.8l1.6-2.3c1.3,1.2,2.8,2.4,4.4,2.4c0.4,0,0.7-0.1,1-0.2c0.3-0.1,0.6-0.3,0.9-0.6l0.1-0.1     c0.1-0.1,0.2-0.3,0.3-0.5l1.1-1.8l24.9-39C154.7,88.2,154.6,85.3,154.5,84L154.5,84z"/>
		</g>
		<path class="st2" d="M116.1,108.7c0.1,0.2,0.1,0.4,0,0.6c-0.1,0.3-0.3,0.4-0.4,0.5c-0.3,0.1-0.7-0.2-1.1-0.5    c-0.2-0.2-0.5-0.3-0.7-0.4l1.1-1.3C115.5,108,115.9,108.3,116.1,108.7L116.1,108.7z"/>
		<path class="st2" d="M148.1,68.5c-0.2-0.7-1.3-1.7-3.5-3.1c-2.1-1.3-5-2.8-8.3-4.5c-5-2.6-11-5.7-16.4-9.2l-0.4,0.2    c-5,2.9-8.9,5.6-12.4,8.7c-3.4,3-6.4,6.4-9.1,10.3c-2.6,3.7-4.9,7.9-7.1,12.9l-1.3,2.8l-0.4-3.1c-0.8-6.3-3-11.4-6.3-14.8    c-2.9-3-6.6-4.6-10.5-4.6c-0.2,0-0.4,0-0.6,0c-1.5,0.1-3,0.4-4.4,0.9l-2.1,0.8l-0.9,0.9l-1.6,1.5c-1.8,2-2.9,4.7-2.9,8.1    c0,6.7,4.7,12.3,14.3,17c8.3,4.1,18.7,6.8,27.1,9c8.4,2.2,14.5,3.8,15.5,5.9l29.6-37.2l1.5-2.1C148.1,68.8,148.1,68.6,148.1,68.5    L148.1,68.5z"/>
		<path class="st2" d="M151.4,77.5c-1.4-2-3.1-3.9-4.5-5.4c0,0-0.1-0.1-0.1-0.1l-30,37.7c-0.2,0.5-0.6,0.8-0.9,0.9    c-0.7,0.2-1.3-0.2-1.8-0.5c-0.3-0.2-0.8-0.5-1-0.2c-0.4,0.6,1.9,1.5,3.2,2.4c1.9,1.3,4.3,3,6.4,4.9c1.5,1.4,3,3.6,3.9,6    c0.7,1.7,1.1,3.4,1.1,4.7l25-39.1l0,0C154.3,87.6,153.9,81.2,151.4,77.5L151.4,77.5z"/>
		<path class="st2" d="M118.2,131c-1.1-0.8-2.6-2.2-2.8-3.4c-0.1-0.4,0-0.7,0.3-1c0.3-0.3,0.5-0.5,0.8-0.5c0.9,0,2,1.1,3.2,2.2    c0.1,0.1,0.1,0.1,0.2,0.2L118.2,131L118.2,131z"/>
		<path class="st2" d="M125.7,130.5c-1.8,0.6-3.7-1.2-5.4-2.8c-1.3-1.3-2.5-2.4-3.6-2.5l5.4-7.4c1.4,1.4,2.8,3.4,3.7,5.7    c0.9,2.2,1.2,4.3,0.9,5.6C126.5,129.9,126.2,130.4,125.7,130.5L125.7,130.5z"/>
		<path class="st2" d="M106.1,27.5c0,0,2-1.9,3.2-3c2.5-2.1,6-2.7,9.1-2.2c7.3,1.3,14.3,9,12.5,22.8c-4,1.9-7.6,3.8-10.9,5.6    l-0.9,0.5c-4.7,2.7-8.8,5.5-12.5,8.8c-3.5,3.1-6.5,6.5-9.2,10.4c-2.6,3.8-5,8-7.2,13c-0.8-6.5-3.1-11.7-6.5-15.3    c-3.2-3.3-7.4-5.1-11.8-4.9c-1.6,0.1-3.2,0.4-4.7,1L106.1,27.5L106.1,27.5z"/>
		<path class="st3" d="M70.3,105.6c0-1.9,1-3,2.3-2.4c1.3,0.6,2.4,2.8,2.4,4.7c0,2-1.1,3-2.4,2.3C71.3,109.7,70.3,107.6,70.3,105.6    L70.3,105.6z"/>
		<path d="M71.9,102.2L71.9,102.2c-0.8,0-1.4,0.4-1.9,1.1c-0.4,0.6-0.6,1.4-0.6,2.3c0,1.1,0.3,2.2,0.8,3.2c0.5,1.1,1.2,1.9,2,2.3    c0.4,0.2,0.8,0.3,1.2,0.3c0.8,0,1.4-0.4,1.9-1.1c0.4-0.6,0.6-1.4,0.6-2.3c0-2.3-1.3-4.7-2.9-5.5C72.6,102.3,72.2,102.2,71.9,102.2    L71.9,102.2L71.9,102.2z M71.9,103.1c0.2,0,0.5,0.1,0.7,0.2c1.3,0.6,2.4,2.8,2.4,4.7c0,1.6-0.7,2.5-1.6,2.5    c-0.2,0-0.5-0.1-0.8-0.2c-1.3-0.7-2.3-2.8-2.3-4.7C70.3,104.1,70.9,103.1,71.9,103.1"/>
		<path class="st3" d="M137.1,40.7c-0.2,0-0.4,0.1-0.4,0.3l-64.5,61.1c0.1,0,0.2,0.1,0.3,0.1c0.2,0.1,0.3,0.2,0.4,0.3    c1.6,0.8,2.8,3.2,2.8,5.5c0,0.2,0,0.5,0,0.7l0,0l0,0l61.2-67.2c0.2,0,0.4-0.1,0.4-0.3C137.4,40.9,137.3,40.7,137.1,40.7    L137.1,40.7z"/>
		<path d="M137,39.8c-0.5,0-0.9,0.3-1.1,0.8l-64.3,60.9l-1.4,1.5L72,103c0.1,0,0.2,0.1,0.2,0.1l0,0l0,0c0.1,0,0.2,0.1,0.3,0.2l0,0    l0.1,0c1.3,0.7,2.3,2.8,2.3,4.7c0,0.2,0,0.4,0,0.6l-0.3,2.4l1.8-1.7l0-0.1l61-67c0.5-0.2,0.8-0.6,0.8-1.2c0-0.7-0.5-1.2-1.1-1.3    C137.1,39.8,137.1,39.8,137,39.8L137,39.8L137,39.8z M137,40.7C137,40.7,137.1,40.7,137,40.7c0.3,0,0.4,0.2,0.4,0.5    c0,0.2-0.1,0.4-0.3,0.4c0,0,0,0-0.1,0l-61.2,67.2l0,0l0,0c0-0.2,0-0.5,0-0.7c0-2.3-1.2-4.7-2.8-5.5c-0.1-0.1-0.3-0.2-0.4-0.3    c-0.1-0.1-0.2-0.1-0.3-0.1L136.7,41C136.7,40.8,136.8,40.7,137,40.7"/>
		<path class="st3" d="M113.5,132.7c-0.4-1.3-0.8-2.6-1.2-3.9c-0.1-0.3-0.2-0.3-0.5-0.3c-0.9,0.2-1.8-0.7-1.7-1.5    c0.1-0.6,0.1-1.2,0-1.8c0-0.3-0.1-0.4-0.4-0.3c-1.4,0.3-2.8,0.4-4.1,0.5c-2.1,0.1-4.2,0.2-6.2-0.1c-1.7-0.3-3.3-0.7-4.9-1.3    c-1.1-0.5-2.1-1.1-3.1-1.7c-0.1-0.1-0.2-0.2-0.3-0.1c-0.4,0.5-0.4,1.4,0.1,1.8c0.1,0.1,0.3,0.2,0.4,0.4c0.4,0.5,0.4,0.9,0,1.4    c-0.4,0.5-0.5,1.1-0.3,1.7c0.1,0.3-0.1,0.4-0.3,0.6c-0.1,0.1-0.2,0.1-0.3,0.1c0,0.3,0,0.5,0,0.8c1.1,0,2.1,0.2,3.2,0.5    c0.5,0.1,1.1,0.2,1.6,0.4c0.5,0.2,0.9,0.4,1.3,0.6c0.5,0.3,1,0.4,1.6,0.5c0.6,0.1,1.2,0.1,1.7,0.1c0.6,0,1.1-0.1,1.6-0.2    c0.5-0.1,1-0.2,1.5-0.2c1.3,0.1,2.6,0.6,3.9,0.8c0.7,0.1,1.3,0.1,2,0.1c0.5,0,1.1-0.1,1.6,0c0.6,0.1,1.3,0.3,1.6,0.9    c0,0.1,0.3,0.3,0.3,0.4c0.1,0.1,0.2,0.1,0.3,0.2h0.7C113.5,132.9,113.5,132.8,113.5,132.7L113.5,132.7z"/>
		<path class="st3" d="M108.2,71.3c-0.3,0.4-0.3,0.8,0,1.1c0.6,0.9,1.5,1.4,2.6,1.5c0.9,0,1.3-0.5,0.9-1.3c-0.1-0.2-0.2-0.4,0-0.6    c0.2-0.2,0.4-0.1,0.6,0c0.2,0.2,0.4,0.4,0.6,0.5c0.1,0.1,0.3,0.3,0.5,0.1c0.2-0.1,0.1-0.4,0-0.6c-0.3-0.6-0.8-1-1.4-1.3    c-0.5-0.2-1,0-1.2,0.5c-0.1,0.2-0.2,0.4-0.4,0.1c-0.3-0.3-0.6-0.4-1-0.5C109,70.7,108.4,70.9,108.2,71.3L108.2,71.3z"/>
		<path class="st3" d="M109,65.6c0-0.1-0.1-0.2,0-0.3c0.1-0.1,0.2-0.1,0.3,0c0.2,0.1,0.3,0.1,0.6,0.2c-0.1-0.5-0.4-0.8-0.8-1    c-1.1-0.6-2.3-0.7-3.5-0.6c-0.7,0.1-1.4,0.1-2.1,0.5c2.2,0.4,4.1,1.1,5.9,2.2C109.3,66.2,109.1,65.9,109,65.6L109,65.6z"/>
		<path class="st3" d="M95.5,78.6c-0.2-0.2-0.3,0-0.5,0.2c-0.5,0.5-0.7,0.8-0.8,1.3l1.4-1.3C95.6,78.7,95.6,78.6,95.5,78.6    L95.5,78.6z"/>
		<path class="st3" d="M94.8,77.1c0.1-0.1,0.2-0.3,0.2-0.5c0-0.3,0.1-0.7,0.1-1c0-0.3,0.1-0.4,0.4-0.4c0.5,0,0.9,0.1,1.4,0.3    c0.7,0.4,1.4,0.9,2.3,1c1.1,0.1,2.1,0.5,3,1.2c0.3,0.2,0.5,0.4,0.8,0.5c0.4,0.1,0.7,0.2,0.9-0.2c0.2-0.3,0.2-0.7-0.1-1    c-0.5-0.5-1-1-1.7-1.3c-1-0.6-2.1-1-3.2-1.5c-0.5-0.2-1.1-0.5-1.4-1c-0.2-0.3-0.3-0.6-0.1-0.8c0.2-0.3,0.5-0.2,0.8-0.1    c1.8,0.3,3.5,0.9,5.2,1.6c0.7,0.3,1.3,0.7,1.7,1.3c0.3,0.4,0.6,0.6,1.1,0.5c0.4-0.1,0.7-0.5,0.8-1c0.1-0.8-0.2-1.3-0.8-1.8    c-1.1-0.9-2.4-1.4-3.7-1.9c-1.3-0.5-2.5-1-3.6-1.8c-0.2-0.1-0.3-0.3-0.5-0.4c-0.1-0.2-0.1-0.4,0-0.5c0.1-0.2,0.2-0.2,0.4-0.2    c0.3,0,0.6,0,0.8,0.2c1.4,0.6,2.8,1.2,4.2,1.6c0.8,0.3,1.7,0.5,2.6,0.6c0.7,0.1,1.1-0.3,1-0.9c-0.2-1-0.8-1.6-1.6-2    c-2.1-1.1-4.4-1.4-6.8-1.3c-0.5,0-0.9,0-1.4-0.1c-0.2-0.1-0.5-0.2-0.6-0.4c-0.3-0.6-1-0.8-1.6-0.5c-0.6,0.3-0.9,0.9-0.6,1.6    c0.1,0.2,0.1,0.5,0,0.7c-0.5,1.6-0.6,3.1-0.1,4.7c0.1,0.2,0.1,0.3,0,0.5c-0.4,0.9-0.5,1.8-0.6,3c0,0.3,0,0.8,0.4,1.2    C94.6,77.3,94.7,77.3,94.8,77.1L94.8,77.1z"/>
		<path class="st3" d="M104.4,84.2c0.3,0.1,0.7-0.1,0.8-0.4c0.3-0.7-0.1-1.9-0.9-2.4c0.2,0.7,0.1,1.4-0.1,2    C104.1,83.7,104.1,84,104.4,84.2L104.4,84.2z"/>
		<path class="st3" d="M99.3,87.9c0.6,0.2,1.1,0,1.6-0.4c0.8-0.6,1-1.5,1-2.5c0-0.8-0.2-1.7-0.7-2.5c0,0-0.1-0.1-0.1-0.1l-3.7,4.1    C97.7,87.2,98.4,87.7,99.3,87.9L99.3,87.9z"/>
		<path class="st3" d="M90.6,101.9c0,1.7,0,3.3,0,5c0,0.9,0,1.9,0,2.8c0.1,1.4,0.2,2.8,0.3,4.2c0.1,1.1,0.2,2.2,0.5,3.3    c0.3,1.3,1.4,1.9,2.5,1.8c1.9-0.1,3.8-0.5,5.5-1.3c1.7-0.8,3.2-1.8,4.6-3.1c0.3-0.3,0.5-0.6,0.3-1c-0.1-0.3-0.2-0.6-0.2-0.9    c-0.6-2.6-1.1-5.3-1.6-7.9c-0.3-1.6-0.6-3.1-1-4.7c-0.1-0.5-0.2-1-0.3-1.6c-0.5,1.1-0.8,2.1-1.2,3.2c0,0.1,0,0.3-0.2,0.3    c-0.2,0-0.1-0.2-0.1-0.3c-0.1-0.9-0.3-1.9-0.4-2.8c-0.3-2.6-0.7-5.2-1.2-7.8c0-0.1,0-0.3-0.2-0.4c-0.9-0.3-1.7-0.8-2.4-1.4    c-0.2-0.2-0.3-0.1-0.3,0.1c0,0.5-0.2,1,0,1.5c0,0.1,0.1,0.2-0.1,0.3c-0.1,0.1-0.2,0-0.3-0.1c-0.3-0.4-0.6-0.7-0.8-1.1l-2.9,3.2    c-0.1,1-0.2,2-0.3,3C90.8,98,90.7,100,90.6,101.9L90.6,101.9z"/>
		<path class="st3" d="M92.6,121.2c1.8,1.3,3.8,1.7,5.9,1.8c2.5,0.1,4.9-0.5,7.1-1.7c0.7-0.4,1.3-0.9,1.9-1.5    c0.1-0.1,0.2-0.2,0.2-0.3c-0.1-0.1-0.2,0-0.3-0.1c-0.7,0-1.5,0-2.2,0c-0.7,0-0.7,0-0.5-0.7c0-0.1,0.1-0.4,0.1-0.4    c-0.2-0.1-0.3,0.1-0.4,0.2c-0.1,0-0.1,0.1-0.2,0.1c-1.8,0.9-3.7,1.6-5.7,2.1c-1.6,0.4-3.1,0.7-4.8,0.5c-0.4,0-0.7,0-1.1,0    C92.5,121.1,92.5,121.2,92.6,121.2L92.6,121.2z"/>
		<path class="st3" d="M109.7,114.6c-0.6,0.8-1.2,1.5-1.9,2.2c0.7-0.4,1.5-0.7,2.2-1.1c0.9-0.5,0.9-0.5,0.1-1.1    C110,114.4,109.9,114.4,109.7,114.6L109.7,114.6z"/>
		<path d="M110,115.7c-0.7,0.4-1.4,0.8-2.2,1.1c0.6-0.7,1.3-1.4,1.9-2.2c0.1-0.2,0.2-0.1,0.4,0C110.9,115.2,110.9,115.2,110,115.7    L110,115.7z M107.5,119.8c-0.6,0.6-1.2,1.1-1.9,1.5c-2.2,1.2-4.6,1.8-7.1,1.7c-2.1-0.1-4.1-0.5-5.9-1.8c-0.1,0-0.1-0.1-0.1-0.1    c0.4,0,0.7,0,1.1,0c1.6,0.2,3.2-0.1,4.8-0.5c2-0.5,3.8-1.2,5.7-2.1c0.1,0,0.1-0.1,0.2-0.1c0.1-0.1,0.2-0.3,0.4-0.2    c0.1,0.1,0,0.3-0.1,0.4c-0.2,0.7-0.2,0.7,0.5,0.7c0.7,0,1.5,0,2.2,0c0.1,0,0.3-0.1,0.3,0.1C107.8,119.6,107.6,119.7,107.5,119.8    L107.5,119.8z M91.5,117.3c-0.3-1.1-0.3-2.2-0.5-3.3c-0.1-1.4-0.2-2.8-0.3-4.2c-0.1-0.9,0-1.9,0-2.8c-0.1-1.7-0.1-3.3,0-5    c0-1.9,0.1-3.8,0.3-5.7c0.1-1,0.2-2,0.3-3l2.9-3.2c0.2,0.4,0.5,0.8,0.8,1.1c0.1,0.1,0.2,0.2,0.3,0.1c0.1-0.1,0.1-0.2,0.1-0.3    c-0.2-0.5,0-1,0-1.5c0-0.2,0.1-0.3,0.3-0.1c0.7,0.6,1.5,1.1,2.4,1.4c0.2,0.1,0.2,0.2,0.2,0.4c0.5,2.6,0.9,5.2,1.2,7.8    c0.1,0.9,0.3,1.9,0.4,2.8c0,0.1,0,0.3,0.1,0.3c0.2,0,0.1-0.2,0.2-0.3c0.3-1,0.7-2.1,1.2-3.2c0.1,0.6,0.2,1.1,0.3,1.6    c0.3,1.6,0.7,3.1,1,4.7c0.5,2.6,1,5.3,1.6,7.9c0.1,0.3,0.1,0.6,0.2,0.9c0.2,0.4,0,0.7-0.3,1c-1.3,1.3-2.9,2.3-4.6,3.1    c-1.8,0.8-3.6,1.2-5.5,1.3C92.9,119.2,91.8,118.6,91.5,117.3L91.5,117.3z M101.1,82.3c0,0,0.1,0.1,0.1,0.1    c0.5,0.8,0.7,1.7,0.7,2.5c0,1-0.3,1.9-1,2.5c-0.5,0.4-0.9,0.6-1.6,0.4c-0.9-0.2-1.5-0.7-1.9-1.5L101.1,82.3L101.1,82.3z     M104.4,81.4c0.8,0.5,1.2,1.6,0.9,2.4c-0.1,0.3-0.5,0.5-0.8,0.4c-0.3-0.2-0.3-0.4-0.2-0.8C104.5,82.8,104.5,82.1,104.4,81.4    L104.4,81.4z M99.2,76.6c-0.9-0.1-1.6-0.6-2.3-1c-0.4-0.3-0.9-0.3-1.4-0.3c-0.2,0-0.4,0.1-0.4,0.4c0,0.3-0.1,0.7-0.1,1    c0,0.2-0.1,0.3-0.2,0.5c-0.2,0.2-0.3,0.2-0.5,0c-0.3-0.4-0.4-0.9-0.4-1.2c0-1.2,0.2-2.1,0.6-3c0.1-0.2,0.1-0.3,0-0.5    c-0.5-1.6-0.4-3.1,0.1-4.7c0.1-0.2,0.1-0.5,0-0.7c-0.3-0.7-0.1-1.3,0.6-1.6c0.6-0.4,1.4-0.1,1.6,0.5c0.1,0.3,0.4,0.4,0.6,0.4    c0.5,0.1,0.9,0.2,1.4,0.1c2.4-0.2,4.6,0.2,6.8,1.3c0.8,0.4,1.4,1,1.6,2c0.1,0.7-0.3,1-1,0.9c-0.9-0.1-1.7-0.4-2.6-0.6    c-1.4-0.5-2.8-1.1-4.2-1.6c-0.3-0.1-0.6-0.2-0.8-0.2c-0.2,0-0.3,0-0.4,0.2c-0.1,0.2-0.1,0.4,0,0.5c0.1,0.2,0.3,0.3,0.5,0.4    c1.1,0.8,2.4,1.3,3.6,1.8c1.3,0.5,2.6,0.9,3.7,1.9c0.6,0.5,0.9,1,0.8,1.8c-0.1,0.5-0.4,0.9-0.8,1c-0.5,0.1-0.8-0.1-1.1-0.5    c-0.4-0.6-1-1-1.7-1.3c-1.7-0.7-3.4-1.3-5.2-1.6c-0.3-0.1-0.6-0.2-0.8,0.1c-0.2,0.3,0,0.6,0.1,0.8c0.3,0.5,0.9,0.8,1.4,1    c1.1,0.5,2.2,0.8,3.2,1.5c0.6,0.4,1.2,0.8,1.7,1.3c0.3,0.3,0.4,0.8,0.1,1c-0.3,0.3-0.6,0.3-0.9,0.2c-0.3-0.1-0.6-0.3-0.8-0.5    C101.3,77.1,100.3,76.7,99.2,76.6L99.2,76.6z M94.3,80c0.1-0.5,0.3-0.8,0.8-1.3c0.1-0.1,0.3-0.3,0.5-0.2c0.1,0.1,0.1,0.1,0.1,0.2    L94.3,80L94.3,80z M105.5,63.9c1.2-0.1,2.4,0,3.5,0.6c0.4,0.2,0.7,0.5,0.8,1c-0.2-0.1-0.4-0.1-0.6-0.2c-0.1,0-0.2-0.1-0.3,0    c-0.1,0.1,0,0.2,0,0.3c0.1,0.3,0.3,0.6,0.3,1c-1.8-1.2-3.8-1.8-5.9-2.2C104.1,64,104.8,64,105.5,63.9L105.5,63.9z M110.9,71.2    c0.2-0.5,0.7-0.7,1.2-0.5c0.6,0.3,1.1,0.7,1.4,1.3c0.1,0.2,0.1,0.4,0,0.6c-0.2,0.2-0.4,0-0.5-0.1c-0.2-0.2-0.4-0.4-0.6-0.5    c-0.2-0.1-0.4-0.2-0.6,0c-0.2,0.2-0.1,0.4,0,0.6c0.4,0.8,0.1,1.3-0.9,1.3c-1.1-0.1-2-0.6-2.6-1.5c-0.2-0.4-0.3-0.8,0-1.1    c0.3-0.3,0.8-0.5,1.3-0.4c0.4,0.1,0.7,0.2,1,0.5C110.7,71.6,110.8,71.5,110.9,71.2L110.9,71.2z M115.3,132.8    c-0.5-1.1-0.7-2.3-1-3.5c0-0.2,0-0.4,0.1-0.6c0.2-0.6,0.1-1.1-0.4-1.5c-0.3-0.3-0.2-0.7-0.3-1c-0.1-1,0-2.1-0.1-3.1    c-0.1-1.1-0.1-2.2-0.2-3.4c0-0.1,0-0.2-0.1-0.3c-0.3-0.2-0.6-0.5-0.9-0.8c-0.2-0.1-0.3-0.3-0.3-0.5c0-1.3-0.1-2.5-0.1-3.8    c0-0.2-0.1-0.4-0.3-0.5c-1.1-0.8-2.3-1.4-3.5-1.9c-0.4-0.2-0.6-0.5-0.7-0.9c-0.3-1-0.5-2-0.7-3.1c-0.1-0.5-0.2-0.9-0.2-1.4    c0,0,0,0,0,0c0,0,0-0.1,0-0.1c0-0.3-0.1-0.5-0.1-0.8c0-0.2-0.1-0.3-0.2-0.4c0-0.1-0.2-1.8-0.2-2.1c-0.5-3.7-0.6-7.4-0.5-11.2    c0-0.8,0.1-1.5,0.2-2.3c0-0.3,0.2-0.4,0.4-0.5c1-0.7,1.9-1.6,2.3-2.8c0.2-0.7,0.4-1.4,0.6-2c0.4-0.9,1-1.7,1.8-2.3    c1-0.8,1.7-1.7,2-3c0.1-0.5,0.1-1,0.2-1.5c0.1-0.5,0.3-0.9,0.5-1.3c0.7-1.2,1.3-2.5,1.1-4c-0.1-0.7-0.5-1.3-1.1-1.8    c-0.3-0.3-0.6-0.5-0.9-0.7c-0.2-0.2-0.7-0.9-0.8-1c-0.4-0.6-0.5-1.3-0.6-1.9c-0.1-0.5-0.2-2.2-0.2-2.4c-0.3-1.3-1.2-1.8-2.3-2.2    c-0.7-0.3-1.5-0.5-2.3-0.4c-1.1,0.1-2.3,0-3.4,0c-1.8,0-3.4,0.4-5,1.2c-0.8,0.4-1.6,0.7-2.6,0.7c-0.8,0-1.4,0.4-1.9,1.1    c-0.7,0.8-0.7,1.7-0.7,2.7c0,0.7-0.3,1.3-0.5,1.9c-0.4,1.3-0.6,2.6-0.3,3.9c0.1,0.7-0.1,1.4-0.3,2.1c-0.8,2.3-1.3,4.6-1.3,7.1    c0,0.5,0,1-0.1,1.5c0,0-0.1,0.8-0.1,0.8l3.8-3.6c0.9-0.8,1.6-1.5,1.8-1.6c0.7-0.5,1.8-0.6,2.7-0.6c0.9,0,1.6,0.8,1.6,1.7    c0,0.6-0.1,1.1-0.5,1.6c-1.5,1.6-6.7,7.4-9,9.9l-0.2,0.2l0,0c-0.2,0.3-0.5,0.5-0.6,0.7c-0.1,0.1-0.1,1.7-0.1,1.7    c-0.1,1-0.2,2-0.2,2.9c0,0.2,0,1.5-0.1,1.7c-0.1,0.7-0.2,1.4-0.2,2.2c0,1-0.1,2.1-0.2,3.1c-0.1,0.9,0,1.9,0,2.8    c0,0.8,0.2,1.6,0.2,2.4c-0.1,1.3,0,2.6,0.1,3.9c0.1,1.6,0.1,3.2,0.5,4.8c0.1,0.2,0,0.4-0.2,0.5c-0.4,0.2-0.6,0.5-0.8,0.8    c-0.3,0.4-0.4,1-0.1,1.5c0.3,0.5,0.3,1.1,0.2,1.6c-0.1,0.6,0,1.1,0.5,1.5c0.4,0.4,0.5,0.8,0.4,1.3c-0.2,0.7-0.1,1.4,0.4,2    c0.2,0.2,0.4,0.3,0.6,0.1c0.2-0.1,0.4-0.3,0.3-0.6c-0.2-0.6-0.1-1.2,0.3-1.7c0.4-0.5,0.4-0.9,0-1.4c-0.1-0.1-0.2-0.3-0.4-0.4    c-0.5-0.4-0.5-1.3-0.1-1.8c0.1-0.2,0.2,0,0.3,0.1c1,0.6,2,1.2,3.1,1.7c1.6,0.7,3.2,1.1,4.9,1.3c2.1,0.3,4.2,0.2,6.2,0.1    c1.4,0,2.8-0.2,4.1-0.5c0.3-0.1,0.4,0,0.4,0.3c0.1,0.6,0.1,1.2,0,1.8c-0.1,0.8,0.8,1.7,1.7,1.5c0.3-0.1,0.4,0,0.5,0.3    c0.4,1.3,0.8,2.6,1.2,3.9c0,0.1,0,0.2,0,0.2h2C115.4,132.9,115.4,132.9,115.3,132.8L115.3,132.8z"/>
	</g>
</g>
<g id="Layer_2">
</g>
</svg>